<svg xmlns="http://www.w3.org/2000/svg" viewBox="0 0 160 150">
  <path d="M23 135c2-38 8-68 25-94C63 18 99 8 124 27c22 17 21 56-1 78-20 21-52 28-100 30Z" fill="#a5521d"/>
  <path d="M46 39C35 18 28 8 13 5c-1 26 6 42 22 53Z" fill="#3a1d0d"/>
  <path d="M62 24C66 11 74 5 88 2c3 21-1 37-13 51Z" fill="#f8f0df"/>
  <path d="M40 29c25-23 64-7 80 25-35-19-63-8-83 31-9 17-13 34-14 50-20-18-11-81 17-106Z" fill="#2a1509"/>
  <path d="M78 60c13-3 27-2 43 3l-9 23c-16-1-29-4-41-11Z" fill="#111"/>
  <path d="M25 57c18-7 34-7 48 0l-8 23c-16 1-30-3-44-11Z" fill="#111"/>
  <path d="M68 62c8-5 13-5 19 0" stroke="#111" stroke-width="6" fill="none"/>
  <path d="M114 98c-7 7-18 9-28 4" fill="none" stroke="#2d1609" stroke-width="5" stroke-linecap="round"/>
</svg>
