<svg xmlns="http://www.w3.org/2000/svg" viewBox="0 0 80 80">
  <path d="M22 67c1-18 2-31 8-43 7-13 24-18 36-9 10 8 10 25 1 35-8 10-19 14-32 19Z" fill="#9c4d1c"/>
  <path d="M29 22C24 11 21 6 14 4c0 12 3 20 10 25Z" fill="#3a1d0d"/>
  <path d="M35 15C37 8 41 5 47 3c2 10 0 18-6 24Z" fill="#f8f0df"/>
  <path d="M26 17c13-11 31-3 38 13-16-9-28-4-39 12l-10 17c-8-9-3-30 11-42Z" fill="#2a1509"/>
  <ellipse cx="54" cy="30" rx="5" ry="6" fill="#fff"/>
  <circle cx="55" cy="30" r="2.3" fill="#111"/>
  <path d="M59 47c-3 3-8 4-12 2" fill="none" stroke="#2d1609" stroke-width="3" stroke-linecap="round"/>
</svg>
